<svg xmlns="http://www.w3.org/2000/svg" width="147" height="34" viewBox="0 0 147 34"><defs><filter id="app-logo-a" width="114.3%" height="114.3%" x="-7.1%" y="-5.1%" filterUnits="objectBoundingBox"><feOffset dy="1" in="SourceAlpha" result="shadowOffsetOuter1"/><feGaussianBlur in="shadowOffsetOuter1" result="shadowBlurOuter1" stdDeviation="1"/><feColorMatrix in="shadowBlurOuter1" result="shadowMatrixOuter1" values="0 0 0 0 0.902157738 0 0 0 0 0.309386994 0 0 0 0 0.309386994 0 0 0 1 0"/><feMerge><feMergeNode in="shadowMatrixOuter1"/><feMergeNode in="SourceGraphic"/></feMerge></filter><linearGradient id="app-logo-b" x1="0%" x2="50%" y1="100%" y2="50%"><stop offset="0%" stop-color="#FFA0A0"/><stop offset="100%" stop-color="#FF6767"/></linearGradient></defs><g fill="none" fill-rule="evenodd"><g filter="url(#app-logo-a)" transform="translate(-6 -10)"><g fill="#FFF" transform="rotate(-45 29.123 11.8)"><path d="M14.617 0a7.544 7.544 0 0 1 7.544 7.544v18.86H7.073V7.544A7.544 7.544 0 0 1 14.617 0z"/><path d="M33.477 18.86a7.544 7.544 0 0 1-7.544 7.544H7.073V11.316h18.86a7.544 7.544 0 0 1 7.544 7.544z"/><rect width="7.544" height="26.404" x="9.511" y="9.43" opacity=".75" rx="3.772" transform="rotate(90 13.283 22.632)"/><rect width="7.544" height="26.404" x="7.073" y="6.992" opacity=".75" rx="3.772"/></g><path fill="url(#app-logo-b)" d="M7.857 5.977H9.81a3.907 3.907 0 1 1 0 7.813H.044V4.023a3.907 3.907 0 0 1 7.813 0v1.954z" opacity=".903" transform="rotate(-45 28.353 -8.166)"/></g><path fill="#FFF" d="M44.142 20.05V13.99h-.493c-.4 0-.557-.021-.746-.126-.241-.137-.378-.378-.378-.693 0-.315.137-.557.378-.693.189-.105.347-.126.746-.126h.493v-1.67c0-.514.032-.703.158-.955.147-.284.451-.504.913-.504s.767.22.914.504c.126.252.157.441.157.955v1.67h1.155c.399 0 .557.021.746.126.241.136.378.378.378.693 0 .315-.137.556-.378.693-.19.105-.347.126-.746.126h-1.155v5.964c0 .735.294 1.207 1.082 1.228.346.011.588.042.777.147.252.137.43.4.43.756a.812.812 0 0 1-.43.746c-.19.105-.473.168-.903.168h-.21c-2.006 0-2.888-1.386-2.888-2.95zm7.382 0V13.99h-.494c-.399 0-.556-.021-.745-.126-.242-.137-.378-.378-.378-.693 0-.315.136-.557.378-.693.189-.105.346-.126.745-.126h.494v-1.67c0-.514.031-.703.157-.955.147-.284.452-.504.914-.504s.766.22.913.504c.126.252.158.441.158.955v1.67h1.155c.399 0 .556.021.745.126.242.136.378.378.378.693 0 .315-.136.556-.378.693-.189.105-.346.126-.745.126h-1.155v5.964c0 .735.294 1.207 1.081 1.228.347.011.588.042.777.147.252.137.43.4.43.756a.812.812 0 0 1-.43.746c-.189.105-.472.168-.903.168h-.21c-2.005 0-2.887-1.386-2.887-2.95zm10.752 2.761c-.221.189-.473.273-.798.273-.326 0-.578-.084-.798-.273-.21-.189-.347-.389-.525-.924l-2.72-7.949c-.126-.378-.22-.703-.115-1.029.105-.325.514-.64.997-.64.651 0 .85.462 1.04 1.029l2.12 6.394 2.122-6.394c.189-.567.388-1.029 1.039-1.029.483 0 .893.315.998.64.105.326.01.651-.116 1.03l-2.72 7.948c-.167.493-.314.735-.524.924zm7.056-5.135c0 1.166.094 2.268.735 2.909.399.41.903.609 1.554.609.65 0 1.155-.2 1.554-.609.64-.64.735-1.743.735-2.909 0-1.165-.095-2.257-.735-2.908-.4-.41-.903-.609-1.554-.609s-1.155.2-1.554.609c-.641.651-.735 1.743-.735 2.908zm-2.142 0c0-1.795.21-3.118 1.249-4.189.693-.714 1.733-1.26 3.182-1.26 1.449 0 2.488.546 3.181 1.26 1.029 1.071 1.25 2.394 1.25 4.19 0 1.795-.221 3.118-1.25 4.189-.693.714-1.732 1.26-3.181 1.26-1.45 0-2.489-.546-3.182-1.26-1.04-1.071-1.25-2.394-1.25-4.19zm11.718 2.373V9.402c0-.514.031-.703.157-.955.147-.284.452-.504.914-.504s.766.22.913.504c.126.252.158.441.158.955v10.553c0 .735.294 1.207 1.081 1.228.347.011.588.042.777.147.252.137.43.4.43.756a.812.812 0 0 1-.43.746c-.189.105-.472.168-.903.168h-.21c-2.005 0-2.887-1.386-2.887-2.95zm12.873-1.207v-5.114c0-.514.031-.703.157-.955.147-.284.452-.504.914-.504s.766.22.913.504c.126.252.158.441.158.955v7.886c0 .588-.042.777-.19 1.018-.178.284-.524.452-.881.452-.347 0-.672-.137-.872-.42-.105-.158-.168-.315-.189-.704-.735.777-1.743 1.166-2.803 1.166-1.092 0-1.995-.357-2.625-.966-.82-.798-1.071-1.806-1.071-3.003v-5.429c0-.514.031-.703.157-.955.147-.284.452-.504.914-.504s.766.22.913.504c.126.252.158.441.158.955v5.114c0 1.659.945 2.352 2.142 2.352s2.205-.714 2.205-2.352zm7.686-2.331v5.113c0 .515-.032.704-.158.956-.147.284-.451.504-.913.504-.463 0-.767-.22-.914-.504-.126-.252-.157-.441-.157-.956V13.74c0-.588.041-.777.188-1.019.179-.283.525-.451.882-.451.347 0 .673.136.872.42.105.157.168.315.189.703.735-.777 1.743-1.165 2.804-1.165 1.092 0 1.995.357 2.625.966.819.798 1.07 1.806 1.07 3.003v5.428c0 .515-.031.704-.157.956-.147.284-.451.504-.913.504s-.767-.22-.914-.504c-.126-.252-.157-.441-.157-.956v-5.113c0-1.659-.945-2.352-2.142-2.352s-2.205.714-2.205 2.352zm10.227 3.538v-6.058h-.494c-.399 0-.556-.021-.746-.126-.241-.137-.377-.378-.377-.693 0-.315.136-.557.377-.693.19-.105.347-.126.746-.126h.493v-1.67c0-.514.032-.703.158-.955.147-.284.451-.504.914-.504.462 0 .766.22.913.504.126.252.158.441.158.955v1.67h1.155c.399 0 .556.021.745.126.242.136.378.378.378.693 0 .315-.136.556-.378.693-.189.105-.346.126-.745.126h-1.155v5.964c0 .735.294 1.207 1.081 1.228.347.011.588.042.777.147.252.137.43.4.43.756a.812.812 0 0 1-.43.746c-.189.105-.472.168-.903.168h-.21c-2.005 0-2.888-1.386-2.888-2.95zm6.289-2.373c0-3.507 1.795-5.449 4.515-5.449 2.783 0 4.442 2.026 4.505 4.84.01.315-.032.693-.294.956-.273.273-.63.273-.945.273h-5.66c0 1.816.956 3.003 2.73 3.003.746 0 1.47-.21 2.048-.672.325-.263.598-.389.871-.389.43 0 .882.42.882.914 0 .493-.546.955-1.071 1.291-.672.442-1.638.683-2.782.683-2.657 0-4.799-1.397-4.799-5.45zm6.909-.871c-.042-.651-.084-.987-.294-1.449-.357-.798-1.092-1.344-2.1-1.344-1.029 0-1.764.546-2.121 1.344-.21.462-.252.798-.273 1.449h4.788zm4.379.871c0-3.507 1.795-5.449 4.515-5.449 2.782 0 4.441 2.026 4.504 4.84.01.315-.031.693-.294.956-.273.273-.63.273-.945.273h-5.66c0 1.816.956 3.003 2.73 3.003.746 0 1.47-.21 2.048-.672.326-.263.599-.389.872-.389.43 0 .882.42.882.914 0 .493-.546.955-1.071 1.291-.672.442-1.638.683-2.783.683-2.656 0-4.798-1.397-4.798-5.45zm6.909-.871c-.042-.651-.084-.987-.294-1.449-.357-.798-1.092-1.344-2.1-1.344-1.03 0-1.764.546-2.121 1.344-.21.462-.252.798-.273 1.449h4.788zm7.056-3.339c.598-.746 1.596-1.239 2.709-1.239.787 0 1.354.147 1.869.493.367.242.64.557.64.966 0 .305-.126.588-.315.777a1.077 1.077 0 0 1-.735.294c-.22 0-.462-.073-.83-.283a2.325 2.325 0 0 0-1.154-.315c-1.218 0-2.174.903-2.174 2.383v5.082c0 .515-.031.704-.157.956-.147.284-.452.504-.914.504s-.767-.22-.913-.504c-.126-.252-.158-.441-.158-.956V13.74c0-.588.042-.777.189-1.019.178-.283.525-.451.882-.451.347 0 .672.136.872.42.115.168.168.325.189.777z"/></g></svg>