<svg xmlns="http://www.w3.org/2000/svg" width="32" height="31" viewBox="0 0 32 31"><defs><linearGradient id="bs-logo-a" x1="0%" x2="50%" y1="100%" y2="50%"><stop offset="0%" stop-color="#FFA0A0"/><stop offset="100%" stop-color="#FF6767"/></linearGradient></defs><g fill="none" fill-rule="evenodd"><g fill="#FFF" transform="rotate(-45 11.845 15.957)"><path d="M14.617 0a7.544 7.544 0 0 1 7.544 7.544v18.86H7.073V7.544A7.544 7.544 0 0 1 14.617 0z"/><path d="M33.477 18.86a7.544 7.544 0 0 1-7.544 7.544H7.073V11.316h18.86a7.544 7.544 0 0 1 7.544 7.544z"/><rect width="7.544" height="26.404" x="9.511" y="9.43" opacity=".75" rx="3.772" transform="rotate(90 13.283 22.632)"/><rect width="7.544" height="26.404" x="7.073" y="6.992" opacity=".75" rx="3.772"/></g><path fill="url(#bs-logo-a)" d="M7.857 5.977H9.81a3.907 3.907 0 1 1 0 7.813H.044V4.023a3.907 3.907 0 0 1 7.813 0v1.954z" opacity=".903" transform="rotate(-45 11.075 -4.01)"/></g></svg>