<svg xmlns="http://www.w3.org/2000/svg" xmlns:xlink="http://www.w3.org/1999/xlink" width="24" height="24" viewBox="0 0 24 24"><defs><path id="share-line-a" d="M0 5.254V.064h3.438v5.19z"/><path id="share-line-c" d="M.059 5.254h3.439V.064H.059v5.19z"/></defs><g fill="none" fill-rule="evenodd"><circle cx="12" cy="12" r="12" fill="#FFA867"/><path fill="#FFF" d="M9.718 9.413h-.756a.211.211 0 0 0-.21.212v4.765c0 .117.094.212.21.212h.756c.116 0 .21-.095.21-.212V9.625a.211.211 0 0 0-.21-.212m5.201 0h-.756a.211.211 0 0 0-.21.212v2.83l-2.15-2.948a.208.208 0 0 0-.017-.021l-.002-.002a.214.214 0 0 0-.012-.013l-.004-.003a.312.312 0 0 0-.017-.014l-.01-.008-.007-.004-.011-.006a.392.392 0 0 0-.019-.009l-.006-.002a.255.255 0 0 0-.052-.011l-.011-.001h-.763a.211.211 0 0 0-.21.212v4.765c0 .117.094.212.21.212h.756c.116 0 .21-.095.21-.212v-2.83l2.154 2.952a.212.212 0 0 0 .053.053l.002.002a.218.218 0 0 0 .019.01c.003.003.007.004.01.006l.01.004.007.003.014.004.003.001a.205.205 0 0 0 .053.007h.756c.116 0 .21-.095.21-.212V9.625a.211.211 0 0 0-.21-.212"/><g transform="translate(4.667 9.349)"><mask id="share-line-b" fill="#fff"><use xlink:href="#share-line-a"/></mask><path fill="#FFF" d="M3.229 4.06H1.176V.278a.211.211 0 0 0-.21-.213H.21A.211.211 0 0 0 0 .277V5.04c0 .057.022.109.059.147l.002.003.004.003c.037.037.088.06.145.06h3.019c.116 0 .21-.096.21-.213v-.767a.211.211 0 0 0-.21-.213" mask="url(#share-line-b)"/></g><g transform="translate(15.804 9.349)"><mask id="share-line-d" fill="#fff"><use xlink:href="#share-line-c"/></mask><path fill="#FFF" d="M3.288 1.257c.116 0 .21-.095.21-.213V.277a.211.211 0 0 0-.21-.213H.27a.207.207 0 0 0-.146.06L.121.126.118.13a.213.213 0 0 0-.059.147V5.04c0 .057.023.109.059.147l.003.003.003.003c.038.037.089.06.145.06h3.02c.115 0 .209-.096.209-.213v-.767a.211.211 0 0 0-.21-.213H1.235v-.806h2.053c.116 0 .21-.095.21-.213v-.767a.211.211 0 0 0-.21-.213H1.235v-.805h2.053z" mask="url(#share-line-d)"/></g></g></svg>