<svg xmlns="http://www.w3.org/2000/svg" width="16" height="12" viewBox="0 0 16 12">
  <path fill="#4A4A4A" d="M13.7822643,10.7309435 C14.0725786,11.0212578 14.0725786,11.4919501 13.7822643,11.7822643 C13.4919501,12.0725786 13.0212578,12.0725786 12.7309435,11.7822643 L8,7.05132079 L3.26905645,11.7822643 C2.97874223,12.0725786 2.50804988,12.0725786 2.21773566,11.7822643 C1.92742145,11.4919501 1.92742145,11.0212578 2.21773566,10.7309435 L6.94867921,6 L2.21773566,1.26905645 C1.92742145,0.978742233 1.92742145,0.508049884 2.21773566,0.217735664 C2.50804988,-0.0725785548 2.97874223,-0.0725785548 3.26905645,0.217735664 L8,4.94867921 L12.7309435,0.217735664 C13.0212578,-0.0725785548 13.4919501,-0.0725785548 13.7822643,0.217735664 C14.0725786,0.508049884 14.0725786,0.978742233 13.7822643,1.26905645 L9.05132079,6 L13.7822643,10.7309435 Z"/>
</svg>
