<svg xmlns="http://www.w3.org/2000/svg" width="16" height="12" viewBox="0 0 16 12">
  <path fill="#4A4A4A" d="M5.07725566,9.4829181 L14.0803277,0.629270476 L14.0803277,0.629270476 C14.4354487,0.280043442 15.0049882,0.280043442 15.3601092,0.629270476 L15.3601092,0.629270476 L15.3601092,0.629270476 C15.7076457,0.971038884 15.7123217,1.52983091 15.3705533,1.8773674 C15.3671011,1.88087781 15.3636196,1.88435928 15.3601092,1.88781143 L5.07725566,12 L0.639890773,7.63628226 L0.639890773,7.63628226 C0.292354285,7.29451385 0.287678333,6.73572183 0.629446741,6.38818534 C0.632898893,6.38467493 0.636380359,6.38119346 0.639890773,6.37774131 L0.639890773,6.37774131 L0.639890773,6.37774131 C0.995011766,6.02851428 1.56455132,6.02851428 1.91967232,6.37774131 L5.07725566,9.4829181 Z"/>
</svg>
