<svg xmlns="http://www.w3.org/2000/svg" width="22" height="22" viewBox="0 0 22 22">
  <path fill="#FFA867" d="M7.73132815,6.37952011 C7.73132815,5.62994255 7.12909767,5.02771206 6.37952011,5.02771206 C5.62994255,5.02771206 5.02771206,5.62994255 5.02771206,6.37952011 C5.02771206,7.12909767 5.62994255,7.73132815 6.37952011,7.73132815 C7.12909767,7.73132815 7.73132815,7.12909767 7.73132815,6.37952011 Z M19,12.4626563 C19,12.8215613 18.851977,13.1703278 18.6093275,13.4129774 L13.4237918,18.6093275 C13.1703278,18.851977 12.8215613,19 12.4626563,19 C12.1037513,19 11.7549848,18.851977 11.5123352,18.6093275 L3.96113552,11.0473133 C3.42244001,10.5194322 3,9.49476174 3,8.74518418 L3,4.35180804 C3,3.61236904 3.61236904,3 4.35180804,3 L8.74518418,3 C9.49476174,3 10.5194322,3.42244001 11.0581277,3.96113552 L18.6093275,11.5015208 C18.851977,11.7549848 19,12.1037513 19,12.4626563 Z"/>
</svg>
