<svg xmlns="http://www.w3.org/2000/svg" width="20" height="20" viewBox="0 0 20 20">
  <path fill="#0687B5" fill-rule="evenodd" d="M8.12124275,11.6589449 L5.53956644,9.0772686 C5.14904214,8.68674431 4.51587715,8.68674431 4.12535286,9.0772686 L4.12535286,9.0772686 L4.10325579,9.09936567 C3.71273149,9.48988997 3.71273149,10.123055 4.10325579,10.5135793 L7.40308741,13.8134109 C7.7591388,14.1694623 8.31688413,14.2008921 8.70854394,13.9077005 C8.77205364,13.8681106 8.83208721,13.8207217 8.88727511,13.7655339 L15.0155339,7.63727511 C15.4060582,7.24675081 15.4060582,6.61358582 15.0155339,6.22306152 L14.9934368,6.20096446 C14.6029125,5.81044016 13.9697475,5.81044016 13.5792232,6.20096446 L8.12124275,11.6589449 Z M10,20 C4.4771525,20 0,15.5228475 0,10 C0,4.4771525 4.4771525,0 10,0 C15.5228475,0 20,4.4771525 20,10 C20,15.5228475 15.5228475,20 10,20 Z"/>
</svg>
