<svg xmlns="http://www.w3.org/2000/svg" width="12" height="12" viewBox="0 0 12 12">
  <path fill="#9B9B9B" d="M8,4 C8,2.8985 7.1015,2 6,2 C4.8985,2 4,2.8985 4,4 C4,5.1015 4.8985,6 6,6 C7.1015,6 8,5.1015 8,4 Z M10,4 C10,4.4765 9.94550341,4.9685 9.74201612,5.3985 L6.89819386,11.4455 C6.73420411,11.7895 6.37472658,12 5.99975002,12 C5.62477345,12 5.26529592,11.789 5.10930567,11.4455 L2.25798388,5.3985 C2.05499656,4.969 2,4.4765 2,4 C2,1.789 3.78888819,0 5.99975002,0 C8.21061184,0 9.99950003,1.789 9.99950003,4 L10,4 Z"/>
</svg>
