<svg xmlns="http://www.w3.org/2000/svg" xmlns:xlink="http://www.w3.org/1999/xlink" width="24" height="24" viewBox="0 0 24 24">
  <defs>
    <polygon id="share-line-a" points="0 5.254 0 .064 3.438 .064 3.438 5.254"/>
    <polygon id="share-line-c" points=".059 5.254 3.498 5.254 3.498 .064 .059 .064 .059 5.254"/>
  </defs>
  <g fill="none" fill-rule="evenodd">
    <circle cx="12" cy="12" r="12" fill="#FFA867"/>
    <g transform="translate(4.667 9.333)">
      <path fill="#FFF" d="M5.05052549.0796099502L4.29491765.0796099502C4.17891765.0796099502 4.08487843.17481393 4.08487843.292306468L4.08487843 5.05672438C4.08487843 5.17413731 4.17891765 5.26934129 4.29491765 5.26934129L5.05052549 5.26934129C5.16652549 5.26934129 5.26040784 5.17413731 5.26040784 5.05672438L5.26040784.292306468C5.26040784.17481393 5.16652549.0796099502 5.05052549.0796099502M10.2521176.0796099502L9.49635294.0796099502C9.3805098.0796099502 9.28639216.17481393 9.28639216.292306468L9.28639216 3.12279403 7.13517647.174177114C7.13023529.166614925 7.12458824.159450746 7.11870588.152604975 7.11831373.152127363 7.11776471.151570149 7.11737255.151092537 7.11337255.146555224 7.10929412.142256716 7.10498039.138117413 7.10364706.136923383 7.10239216.135729353 7.10113725.134535323 7.09745098.13119204 7.09376471.12800796 7.09.124903483 7.08803922.123470647 7.08623529.122117413 7.08443137.120764179 7.0807451.118057711 7.07729412.115510448 7.07352941.113122388 7.07141176.111769154 7.06929412.110575124 7.06717647.109221891 7.0634902.107072637 7.05972549.104843781 7.05580392.102933333 7.05368627.101739303 7.0514902.100704478 7.04929412.0996696517 7.04529412.097838806 7.04129412.0960875622 7.03729412.0944159204 7.03494118.0935402985 7.03282353.0928238806 7.03062745.0919482587 7.02647059.0905154229 7.02223529.0890825871 7.01807843.0878885572 7.01564706.0871721393 7.01329412.0865353234 7.01078431.0859781095 7.00678431.0849432836 7.00270588.0839880597 6.99862745.0831920398 6.99564706.0827144279 6.9927451.0823164179 6.98984314.081918408 6.98607843.081361194 6.98247059.0808835821 6.97878431.0805651741 6.97509804.0801671642 6.97141176.0800875622 6.96772549.0800079602 6.96537255.0798487562 6.96301961.0796099502 6.96066667.0796099502L6.20498039.0796099502C6.08913725.0796099502 5.99509804.17481393 5.99509804.292306468L5.99509804 5.05672438C5.99509804 5.17413731 6.08913725 5.26934129 6.20498039 5.26934129L6.96066667 5.26934129C7.07666667 5.26934129 7.17062745 5.17413731 7.17062745 5.05672438L7.17062745 2.22711244 9.32458824 5.17939104C9.3394902 5.20064478 9.35760784 5.21807761 9.37768627 5.23200796 9.37847059 5.23256517 9.3792549 5.23312239 9.38003922 5.2336796 9.38427451 5.23654527 9.38858824 5.23909254 9.39298039 5.2416398 9.39486275 5.24275423 9.39698039 5.24386866 9.39901961 5.24490348 9.40223529 5.24673433 9.40560784 5.24824677 9.40898039 5.24991841 9.41235294 5.25135124 9.41556863 5.25286368 9.41894118 5.25421692 9.42113725 5.25509254 9.42333333 5.25588856 9.42552941 5.25668458 9.43015686 5.25835622 9.43494118 5.25994826 9.43972549 5.26130149 9.44066667 5.2615403 9.44168627 5.2617791 9.44278431 5.26209751 9.45980392 5.26671443 9.47784314 5.26934129 9.49635294 5.26934129L10.2521176 5.26934129C10.3680392 5.26934129 10.462 5.17413731 10.462 5.05672438L10.462.292306468C10.462.17481393 10.3680392.0796099502 10.2521176.0796099502"/>
      <g transform="translate(0 .016)">
        <mask id="share-line-b" fill="#fff">
          <use xlink:href="#share-line-a"/>
        </mask>
        <path fill="#FFF" d="M3.22883137,4.0606408 L1.17557647,4.0606408 L1.17557647,0.276680597 C1.17557647,0.15918806 1.08153725,0.0639840796 0.965615686,0.0639840796 L0.210007843,0.0639840796 C0.0940078431,0.0639840796 -3.1372549e-05,0.15918806 -3.1372549e-05,0.276680597 L-3.1372549e-05,5.0407005 L-3.1372549e-05,5.0409393 C-3.1372549e-05,5.09809353 0.0223215686,5.14999403 0.0586352941,5.18812338 C0.059654902,5.18915821 0.0605176471,5.19035224 0.0614588235,5.19130746 C0.0625568627,5.19234229 0.063654902,5.19329751 0.0645176471,5.19417313 C0.102321569,5.23094925 0.153223529,5.25371542 0.209694118,5.25371542 L0.210007843,5.25371542 L3.22883137,5.25371542 C3.34459608,5.25371542 3.4384,5.15827264 3.4384,5.0407005 L3.4384,4.27365572 C3.4384,4.15600398 3.34459608,4.0606408 3.22883137,4.0606408" mask="url(#share-line-b)"/>
      </g>
      <g transform="translate(11.137 .016)">
        <mask id="share-line-d" fill="#fff">
          <use xlink:href="#share-line-c"/>
        </mask>
        <path fill="#FFF" d="M3.28819608,1.25700299 C3.40403922,1.25700299 3.49784314,1.1615602 3.49784314,1.04398806 L3.49784314,0.276943284 C3.49784314,0.159291542 3.40403922,0.0639283582 3.28819608,0.0639283582 L0.269372549,0.0639283582 L0.268980392,0.0639283582 C0.212352941,0.0639283582 0.161058824,0.0868537313 0.123411765,0.123948259 C0.122627451,0.124744279 0.121764706,0.125460697 0.120901961,0.126256716 C0.11972549,0.127450746 0.118784314,0.12880398 0.117529412,0.12999801 C0.0816078431,0.168206965 0.0594901961,0.219709453 0.0594901961,0.276704478 L0.0594901961,0.276943284 L0.0594901961,5.04064478 L0.0594901961,5.04096318 C0.0594901961,5.09819701 0.0817647059,5.14993831 0.118,5.18814726 C0.119019608,5.18918209 0.119882353,5.19029652 0.120901961,5.19133134 C0.121921569,5.19236617 0.123019608,5.19324179 0.124039216,5.19427662 C0.161686275,5.23097313 0.212666667,5.2537393 0.268980392,5.2537393 L0.269372549,5.2537393 L3.28819608,5.2537393 C3.40403922,5.2537393 3.49784314,5.15837612 3.49784314,5.04064478 L3.49784314,4.2736796 C3.49784314,4.15602786 3.40403922,4.06066468 3.28819608,4.06066468 L1.23486275,4.06066468 L1.23486275,3.25533134 L3.28819608,3.25533134 C3.40403922,3.25533134 3.49784314,3.15988856 3.49784314,3.04231642 L3.49784314,2.27527164 C3.49784314,2.1576199 3.40403922,2.06233632 3.28819608,2.06233632 L1.23486275,2.06233632 L1.23486275,1.25700299 L3.28819608,1.25700299 Z" mask="url(#share-line-d)"/>
      </g>
    </g>
  </g>
</svg>
